<?xml version="1.0" encoding="utf-8"?>
<!-- Generator: Adobe Illustrator 15.1.0, SVG Export Plug-In . SVG Version: 6.00 Build 0)  -->
<!DOCTYPE svg PUBLIC "-//W3C//DTD SVG 1.1//EN" "http://www.w3.org/Graphics/SVG/1.1/DTD/svg11.dtd">
<svg version="1.1" id="Calque_2" xmlns="http://www.w3.org/2000/svg" xmlns:xlink="http://www.w3.org/1999/xlink" x="0px" y="0px"
	 width="595.28px" height="841.89px" viewBox="0 0 595.28 841.89" enable-background="new 0 0 595.28 841.89" xml:space="preserve">
<path fill="#FFFFFF" stroke="#000000" stroke-miterlimit="10" d="M343.5,376.875l7.5,32.375l7.75-5
	c6.417,1.25-5.25,20.75-5.25,20.75s13.916,14.667-4.25,22.667l-13.5,4.5c-4,1.667-6.583,0.837-6.583,0.837l-44.917,3.121
	c0,0-10.652-0.049-13.062-3.125l-8.468-9.149c-13.03-2.399-8.72-20.601-8.72-20.601c-11.75-4-8.75-19-8.75-19
	c5.5-0.25,11.667,1.833,11.667,1.833l6.75-17.417l74.167-14.167L343.5,376.875z"/>
<path fill="#FFFFFF" stroke="#000000" stroke-miterlimit="10" d="M250.625,459.375c0,0,31.125-10.25,32.875-9.625
	s1.25,12.25,1.25,12.25l34.167-3.833l5.049-2.027L329.5,455l-2.375-13.375c0,0,9.5,4.75,9.75,5.5s-2.688,13.25-2.688,13.25
	L340.25,462l9-14.25l-21.75-21.5l-42.5,6l-37.734,19.647"/>
<path fill="#FFFFFF" stroke="#000000" stroke-miterlimit="10" d="M337.03,384.713c14.47,45.537-70.03,65.038-73.78,13.872
	l0.083-21.083l55-26.5L333.812,374L337.03,384.713z"/>
<path fill="#FFFFFF" stroke="#000000" stroke-miterlimit="10" d="M282.667,510.833l15.591,0.833c0,0-5.424,22.166-3.008,25h-24.917
	c0,0,8.667-7.583,13-7.833L282.667,510.833z"/>
<path fill="#FFFFFF" stroke="#000000" stroke-miterlimit="10" d="M303.345,490.761c0,0-2.687,15.735-6.683,20.82l-12.412-0.748
	c1.325-6.979,1.749-17.839,1.749-17.839L303.345,490.761z"/>
<path fill="#FFFFFF" stroke="#000000" stroke-miterlimit="10" d="M317,512.833L335.25,507l-1.083,22.833
	c0,0,12.083,4.833,11.833,5.833c-0.343,1.372-20.875,1.667-20.875,1.667S320.5,516.833,317,512.833z"/>
<path fill="#FFFFFF" stroke="#000000" stroke-miterlimit="10" d="M329.444,487.399c0,0,0.961,16.38,3.269,20.411l-12.213,3.856
	l-8.833-21.917"/>
<path fill="#FFFFFF" stroke="#000000" stroke-miterlimit="10" d="M314.279,428.116c0,0,4.388,12.884-7.779,13.884
	s-9.838-11.396-9.838-11.396L314.279,428.116z"/>
<path fill="#FFFFFF" stroke="#000000" stroke-miterlimit="10" d="M331.417,460.667c0,0,7.303-2.917,12.833,5.916
	c0,0,3.167,6.584-5.56,10.084"/>
<path fill="#FFFFFF" stroke="#000000" stroke-miterlimit="10" d="M276.167,407.833c2.833-4.5,49.833-9,51.167-7.333
	s1.452,16.331-23.5,20.445S276.167,408.5,276.167,408.5V407.833z"/>
<path fill="#FFFFFF" stroke="#000000" stroke-miterlimit="10" d="M243.417,449.668L236,408l-6,1.667l7.5,41.585l2.25,14.583
	c0,0,11.417,66.832,12.083,68.332s4.5,0,4.5,0c1.333-3.5-9.845-67.713-10.417-69.165"/>
<polygon fill="#FFFFFF" stroke="#000000" stroke-miterlimit="10" points="288,462 284.75,462 284.542,462.021 276.25,494.25 
	342.25,485.75 329.25,455.5 323.966,456.14 318.917,458.167 294.5,461.501 "/>
<polygon fill="#FFFFFF" stroke="#000000" stroke-miterlimit="10" points="225.333,398.335 227.667,410.168 238.833,407.335 
	235.583,396.333 "/>
<path fill="#FFFFFF" stroke="#000000" stroke-miterlimit="10" d="M240.333,450.006c-7.333,2.333-6.5,8.333-6.5,8.333
	s-1.167,8.834,9.333,7.167s6.667-9.667,6.667-9.667S247.667,447.673,240.333,450.006z"/>
<path fill="#FFFFFF" stroke="#000000" stroke-miterlimit="10" d="M277.5,390.339c-3.333,0.167-3.667,4.333-3.667,4.333
	s-0.333,2.333,3.167,3s3.333-3.5,3.333-3.5S280.833,390.172,277.5,390.339z"/>
<path fill="#FFFFFF" stroke="#000000" stroke-miterlimit="10" d="M325.167,386.339c-3.5,0.333-2.667,3.333-2.667,3.333
	s-0.334,3.333,3.333,3.167s3-4.333,3-4.333S328.667,386.005,325.167,386.339z"/>
<path fill="#FFFFFF" stroke="#000000" stroke-miterlimit="10" d="M258.25,359.25l-1.083,47.001C270.75,391.751,267.5,380,267.5,380
	c27.5,12.75,44.25-24.25,44.25-24.25c8.312,30.312,32.438,20.625,32.438,20.625l-8.938-35.542L258.25,359.25z"/>
<path fill="#FFFFFF" stroke="#000000" stroke-miterlimit="10" d="M292.947,431.128c0,0,2.052,30.58,1.219,33.06l-5.417,1.146
	c-1.333-1.667-1.638-33.382-1.638-33.382L292.947,431.128z"/>
<path fill="#FFFFFF" stroke="#000000" stroke-miterlimit="10" d="M321.312,427.25c0,0,3.562,29.435,2.229,32.768L319.5,460.5
	c-0.5-2-2.5-32.768-2.5-32.768L321.312,427.25z"/>
<path fill="#FFFFFF" stroke="#000000" stroke-miterlimit="10" d="M291.5,464.339c-4,0.5-3.333,3.833-3.333,3.833
	s-0.166,3.667,4.167,3.167s3.667-4.333,3.667-4.333S295.5,463.839,291.5,464.339z"/>
<path fill="#FFFFFF" stroke="#000000" stroke-miterlimit="10" d="M321.5,460.172c-4.5-0.166-4.167,3.5-4.167,3.5s0,3,4,3.5
	s3.834-3.833,3.834-3.833S326,460.338,321.5,460.172z"/>
<polyline fill="#FFFFFF" stroke="#000000" stroke-miterlimit="10" points="317.75,327 361.5,334.583 237.583,364.003 266,339.833 
	262.72,313.5 308.75,303.5 317.75,327.083 "/>
<polygon fill="#FFFFFF" stroke="#000000" stroke-miterlimit="10" points="264.844,329.906 314.104,317.667 317.75,327 266.25,340 
	"/>
<path fill="#FFFFFF" stroke="#000000" stroke-miterlimit="10" d="M236.5,348.506l7.167,34.5c0,0-4.167,5.667-10,6.333
	l-11.833-37.922l-1.75-0.25l8.75,40.333c0,0-7.5,3.001-10.833,1.001s-11.25-35.334-11.25-35.334l-0.667,0.5l7.583,40.834
	c7.819,0.541,27.333,0.167,34.5-11.501c0,0-8.167-35.661-11-38.662L236.5,348.506z"/>
</svg>
